PathFileType	4	(X/Y/Z)	/Users/niels/Desktop/University/Third Semester/Perception and Action/Exam/Gymnastics Motion Tracking/Code for Gym Tracking/Analyzed Data/Webcam_Backflip/id1_5_trajectory_Sports2D/id1_5_trajectory_Sports2D_px_person00.trc
DataRate	CameraRate	NumFrames	NumMarkers	Units	OrigDataRate	OrigDataStartFrame	OrigNumFrames
29.71698113207547	29.71698113207547	7	22	m	29.71698113207547	79	106
Frame#	Time	Hip			RHip			RKnee			RAnkle			RBigToe			RSmallToe			RHeel			LHip			LKnee			LAnkle			LBigToe			LSmallToe			LHeel			Neck			Head			Nose			RShoulder			RElbow			RWrist			LShoulder			LElbow			LWrist		
		X1	Y1	Z1	X2	Y2	Z2	X3	Y3	Z3	X4	Y4	Z4	X5	Y5	Z5	X6	Y6	Z6	X7	Y7	Z7	X8	Y8	Z8	X9	Y9	Z9	X10	Y10	Z10	X11	Y11	Z11	X12	Y12	Z12	X13	Y13	Z13	X14	Y14	Z14	X15	Y15	Z15	X16	Y16	Z16	X17	Y17	Z17	X18	Y18	Z18	X19	Y19	Z19	X20	Y20	Z20	X21	Y21	Z21	X22	Y22	Z22
79	2.658412698412698	0.8768016989031368	-0.5189748917671885	0.0	0.8714112978984614	-0.5273759186703383	0.0	0.8748312927140405	-0.6715950175899182	0.0	0.8464871475472341	-0.8091245607253866	0.0	0.8888855252332885	-0.8423157299136994	0.0	0.8728277250778484	-0.8470466717137096	0.0	0.8301366522130177	-0.8262158033186466	0.0	0.8868154644753783	-0.5241795308160703	0.0	0.8718401762205461	-0.6324321970977708	0.0	0.8468888254639696	-0.8015877877620164	0.0	0.9009782916629047	-0.8355678857007214	0.0	0.8905648218905239	-0.8315575404602115	0.0	0.8253774134370558	-0.7803500156647135	0.0	0.9828364239374453	-0.4458118230761004	0.0	1.0673028876273556	-0.42012933400134217	0.0	1.0322902791935178	-0.4588769717842704	0.0	0.9540760277808429	-0.45343744640956235	0.0	0.916861212357019	-0.5066616427079644	0.0	0.9345892870616872	-0.5588328623278289	0.0	0.9843523114848929	-0.43823136401510393	0.0	0.9970811385150785	-0.497800986003434	0.0	1.0333799280026958	-0.550003231879944	0.0
80	2.692063492063492	0.8715650999736907	-0.5773290652759661	0.0	0.8676414098414285	-0.5844108574081033	0.0	0.8831064916157029	-0.724732665472379	0.0	0.8579799849307999	-0.8659696583122588	0.0	0.9012492493110322	-0.8906312390064041	0.0	0.8856507204986099	-0.8961413743542787	0.0	0.8424281177263524	-0.8812684018998338	0.0	0.8788537516968483	-0.5812083046138091	0.0	0.8764640514280372	-0.6794437315079275	0.0	0.8572135884999724	-0.8558008758826784	0.0	0.9138512220519864	-0.8848154526402006	0.0	0.9001884921825379	-0.8813793227646429	0.0	0.8357129038745307	-0.8287854850328122	0.0	0.9583283244109777	-0.4669144403402739	0.0	1.0350190981308556	-0.42374139265046473	0.0	1.0087340511816116	-0.46888625018862584	0.0	0.9330867418202278	-0.47680799728142853	0.0	0.9250372002585645	-0.5265200725156158	0.0	0.9641427270456429	-0.5582849935207382	0.0	0.9586774929897829	-0.4613861940841758	0.0	0.9953287085058119	-0.5152532016737484	0.0	1.0499016197436788	-0.5467620491487795	0.0
81	2.7257142857142855	0.868724588883651	-0.6303798467665354	0.0	0.8654954386156162	-0.6360241360697558	0.0	0.8884903434675361	-0.7719718071364963	0.0	0.8626288500419688	-0.9140302033545653	0.0	0.9065783945357516	-0.9308494511853522	0.0	0.890368910069924	-0.9364510109201754	0.0	0.8474154466074023	-0.9261537165075441	0.0	0.874669576622291	-0.6331793005908157	0.0	0.8817177219316149	-0.7303926836701343	0.0	0.8627144356320811	-0.9019760366898919	0.0	0.9197358306381292	-0.9260979354049543	0.0	0.9034664688680082	-0.9236051114744437	0.0	0.8406987737113706	-0.8786265027395294	0.0	0.9338441129979326	-0.49142349959424114	0.0	1.0004351047271838	-0.4347123853455556	0.0	0.9835356177752083	-0.48400601573864405	0.0	0.9120888445846542	-0.5025909259305908	0.0	0.9320286713789387	-0.5405260510961991	0.0	0.987742169916558	-0.5464780804290683	0.0	0.9320466008933996	-0.48883701526498297	0.0	0.9903363719746042	-0.5262962227872967	0.0	1.055242521205738	-0.5333342545461941	0.0
82	2.759365079365079	0.867040999819268	-0.6728584287642426	0.0	0.8639458306017713	-0.6772103096366682	0.0	0.8912404132225782	-0.80902737146772	0.0	0.8625000964192566	-0.9496855293672798	0.0	0.9073114210602901	-0.9601405584599383	0.0	0.8896141715016016	-0.965495793864544	0.0	0.8473039533091447	-0.9586701159622251	0.0	0.8729104268736663	-0.6751193032643654	0.0	0.8865546050099059	-0.778167965749275	0.0	0.864316062063641	-0.9375029834503716	0.0	0.9207957726196677	-0.9562013195903585	0.0	0.9027503562635021	-0.9546949216824347	0.0	0.8414675469137662	-0.9239945123588237	0.0	0.9118515149724439	-0.5153277896396076	0.0	0.9682647329948069	-0.44950462406171543	0.0	0.9595647141594194	-0.5006046977847082	0.0	0.8931552835377519	-0.5269150926196048	0.0	0.9367806690056802	-0.5482762070014127	0.0	1.002744908361208	-0.5283876812007204	0.0	0.9076498059155677	-0.5164648317774589	0.0	0.9819173581838209	-0.5324033376994092	0.0	1.0496115701916613	-0.5160464343834414	0.0
83	2.7930158730158725	0.8652351040206094	-0.7009677664753784	0.0	0.8620992693123106	-0.7042375770971042	0.0	0.8923661350901904	-0.8323059491737786	0.0	0.8600748405108792	-0.9698919158407266	0.0	0.9060609982101142	-0.9764991295056513	0.0	0.8867060841221702	-0.9818468387714485	0.0	0.844856352598926	-0.9771911088890243	0.0	0.8717173515819846	-0.7030914445666491	0.0	0.8900786035850068	-0.8132703379191797	0.0	0.8635885393115283	-0.9592672346231178	0.0	0.9194979725419457	-0.9725506086915577	0.0	0.900414507434094	-0.9718080314575992	0.0	0.839990096321098	-0.9558918784257915	0.0	0.8939177503348175	-0.5336854404109885	0.0	0.9419024958491967	-0.46280457131854386	0.0	0.9390944471244228	-0.5138210252884035	0.0	0.8775374525897762	-0.5450275259545814	0.0	0.9381005785383004	-0.5499569807997595	0.0	1.0081535921760185	-0.5095510756687147	0.0	0.8882948582656855	-0.5386126026735407	0.0	0.9714373967523485	-0.5342439374244421	0.0	1.037164220255748	-0.499808707906001	0.0
84	2.826666666666666	0.8626092157085093	-0.7130137458881222	0.0	0.8594569032912255	-0.7153523497369437	0.0	0.8928264027581662	-0.8397912067361385	0.0	0.8573733000029441	-0.9736193255091773	0.0	0.9048423147001275	-0.9793808833437837	0.0	0.8845422448840691	-0.9852388073531227	0.0	0.8424389654826492	-0.9813376067298677	0.0	0.8699095921244173	-0.7150358254605202	0.0	0.8920727341754511	-0.8299967236234832	0.0	0.8620043772641757	-0.9651066742319813	0.0	0.9178571727267533	-0.9743300301024642	0.0	0.8983690005595981	-0.9740156834474677	0.0	0.8382488573889694	-0.9695489206473324	0.0	0.8805239195848862	-0.5419540069650892	0.0	0.9226276203323881	-0.4691418813234162	0.0	0.9233377092576814	-0.5189852733280573	0.0	0.8653044897707146	-0.5525781601082955	0.0	0.9345494531114332	-0.5462825076603047	0.0	1.0042794532833585	-0.494021757961501	0.0	0.8753864554466525	-0.5499754917684854	0.0	0.9611868985627962	-0.5314959403292536	0.0	1.0236548657171447	-0.48669557903537614	0.0
85	2.86031746031746	0.8590371871102226	-0.7093671010745723	0.0	0.8558154059356038	-0.7108648641628587	0.0	0.8928597715074682	-0.8316234549687868	0.0	0.8554866556107803	-0.9622322891468315	0.0	0.9045610745676645	-0.9696247056839098	0.0	0.8845896262763967	-0.9761292412376226	0.0	0.8413048544199283	-0.9720625412914902	0.0	0.867267036325219	-0.7110436480042311	0.0	0.8926178394069119	-0.8276200336242044	0.0	0.860507827032766	-0.9553020770757036	0.0	0.9166603080837589	-0.9627464497424785	0.0	0.8977500569991823	-0.9625343276055635	0.0	0.8374838649290329	-0.9653797983969092	0.0	0.8712541022216562	-0.5375502484618039	0.0	0.909871155472362	-0.464709794525144	0.0	0.9123484749123347	-0.5131245606014642	0.0	0.8557391928838392	-0.5471917081373275	0.0	0.9251500876813165	-0.5379041185389644	0.0	0.9925196297820936	-0.48302569187846034	0.0	0.8685934057468458	-0.5476505526384843	0.0	0.9531047314347537	-0.5234650937119472	0.0	1.0135563175292497	-0.47621977047118236	0.0
